<svg id="visual" viewBox="0 0 900 600" width="900" height="600" xmlns="http://www.w3.org/2000/svg" xmlns:xlink="http://www.w3.org/1999/xlink" version="1.1"><rect x="0" y="0" width="900" height="600" fill="#001220"></rect><path d="M0 286L13.7 282C27.3 278 54.7 270 82 277.7C109.3 285.3 136.7 308.7 163.8 320.8C191 333 218 334 245.2 326.3C272.3 318.7 299.7 302.3 327 286C354.3 269.7 381.7 253.3 409 260.7C436.3 268 463.7 299 491 296.3C518.3 293.7 545.7 257.3 573 255.5C600.3 253.7 627.7 286.3 654.8 303.5C682 320.7 709 322.3 736.2 320.8C763.3 319.3 790.7 314.7 818 307.3C845.3 300 872.7 290 886.3 285L900 280L900 601L886.3 601C872.7 601 845.3 601 818 601C790.7 601 763.3 601 736.2 601C709 601 682 601 654.8 601C627.7 601 600.3 601 573 601C545.7 601 518.3 601 491 601C463.7 601 436.3 601 409 601C381.7 601 354.3 601 327 601C299.7 601 272.3 601 245.2 601C218 601 191 601 163.8 601C136.7 601 109.3 601 82 601C54.7 601 27.3 601 13.7 601L0 601Z" fill="#0066ff"></path><path d="M0 338L13.7 347.3C27.3 356.7 54.7 375.3 82 383C109.3 390.7 136.7 387.3 163.8 379.3C191 371.3 218 358.7 245.2 349.2C272.3 339.7 299.7 333.3 327 336.5C354.3 339.7 381.7 352.3 409 354.5C436.3 356.7 463.7 348.3 491 341.7C518.3 335 545.7 330 573 330.3C600.3 330.7 627.7 336.3 654.8 338C682 339.7 709 337.3 736.2 338.2C763.3 339 790.7 343 818 338.7C845.3 334.3 872.7 321.7 886.3 315.3L900 309L900 601L886.3 601C872.7 601 845.3 601 818 601C790.7 601 763.3 601 736.2 601C709 601 682 601 654.8 601C627.7 601 600.3 601 573 601C545.7 601 518.3 601 491 601C463.7 601 436.3 601 409 601C381.7 601 354.3 601 327 601C299.7 601 272.3 601 245.2 601C218 601 191 601 163.8 601C136.7 601 109.3 601 82 601C54.7 601 27.3 601 13.7 601L0 601Z" fill="#007aff"></path><path d="M0 359L13.7 360.7C27.3 362.3 54.7 365.7 82 372.7C109.3 379.7 136.7 390.3 163.8 400C191 409.7 218 418.3 245.2 426.3C272.3 434.3 299.7 441.7 327 444.3C354.3 447 381.7 445 409 434.8C436.3 424.7 463.7 406.3 491 393.2C518.3 380 545.7 372 573 366.5C600.3 361 627.7 358 654.8 372C682 386 709 417 736.2 431.7C763.3 446.3 790.7 444.7 818 436C845.3 427.3 872.7 411.7 886.3 403.8L900 396L900 601L886.3 601C872.7 601 845.3 601 818 601C790.7 601 763.3 601 736.2 601C709 601 682 601 654.8 601C627.7 601 600.3 601 573 601C545.7 601 518.3 601 491 601C463.7 601 436.3 601 409 601C381.7 601 354.3 601 327 601C299.7 601 272.3 601 245.2 601C218 601 191 601 163.8 601C136.7 601 109.3 601 82 601C54.7 601 27.3 601 13.7 601L0 601Z" fill="#008cff"></path><path d="M0 474L13.7 476.2C27.3 478.3 54.7 482.7 82 474.3C109.3 466 136.7 445 163.8 448.5C191 452 218 480 245.2 481.5C272.3 483 299.7 458 327 458.2C354.3 458.3 381.7 483.7 409 496C436.3 508.3 463.7 507.7 491 502.5C518.3 497.3 545.7 487.7 573 474.2C600.3 460.7 627.7 443.3 654.8 435.3C682 427.3 709 428.7 736.2 432.5C763.3 436.3 790.7 442.7 818 451.7C845.3 460.7 872.7 472.3 886.3 478.2L900 484L900 601L886.3 601C872.7 601 845.3 601 818 601C790.7 601 763.3 601 736.2 601C709 601 682 601 654.8 601C627.7 601 600.3 601 573 601C545.7 601 518.3 601 491 601C463.7 601 436.3 601 409 601C381.7 601 354.3 601 327 601C299.7 601 272.3 601 245.2 601C218 601 191 601 163.8 601C136.7 601 109.3 601 82 601C54.7 601 27.3 601 13.7 601L0 601Z" fill="#2b9dfc"></path><path d="M0 566L13.7 557.2C27.3 548.3 54.7 530.7 82 525.3C109.3 520 136.7 527 163.8 525.2C191 523.3 218 512.7 245.2 512C272.3 511.3 299.7 520.7 327 526.5C354.3 532.3 381.7 534.7 409 538.3C436.3 542 463.7 547 491 542C518.3 537 545.7 522 573 519C600.3 516 627.7 525 654.8 533C682 541 709 548 736.2 549.5C763.3 551 790.7 547 818 544.7C845.3 542.3 872.7 541.7 886.3 541.3L900 541L900 601L886.3 601C872.7 601 845.3 601 818 601C790.7 601 763.3 601 736.2 601C709 601 682 601 654.8 601C627.7 601 600.3 601 573 601C545.7 601 518.3 601 491 601C463.7 601 436.3 601 409 601C381.7 601 354.3 601 327 601C299.7 601 272.3 601 245.2 601C218 601 191 601 163.8 601C136.7 601 109.3 601 82 601C54.7 601 27.3 601 13.7 601L0 601Z" fill="#4facf7"></path></svg>