<?xml version="1.0" encoding="UTF-8"?>
<!DOCTYPE svg PUBLIC "-//W3C//DTD SVG 1.1//EN" "http://www.w3.org/Graphics/SVG/1.1/DTD/svg11.dtd">
<svg xmlns="http://www.w3.org/2000/svg" version="1.1" width="512px" height="512px" style="shape-rendering:geometricPrecision; text-rendering:geometricPrecision; image-rendering:optimizeQuality; fill-rule:evenodd; clip-rule:evenodd" xmlns:xlink="http://www.w3.org/1999/xlink">
<g><path style="opacity:0.996" fill="#c8414a" d="M 511.5,117.5 C 511.5,131.167 511.5,144.833 511.5,158.5C 340.833,158.5 170.167,158.5 -0.5,158.5C -0.5,144.833 -0.5,131.167 -0.5,117.5C 3.75644,101.413 14.0898,91.5795 30.5,88C 180.5,87.3333 330.5,87.3333 480.5,88C 496.91,91.5795 507.244,101.413 511.5,117.5 Z"/></g>
<g><path style="opacity:1" fill="#fed150" d="M -0.5,158.5 C 170.167,158.5 340.833,158.5 511.5,158.5C 511.5,223.167 511.5,287.833 511.5,352.5C 340.833,352.5 170.167,352.5 -0.5,352.5C -0.5,287.833 -0.5,223.167 -0.5,158.5 Z"/></g>
<g><path style="opacity:1" fill="#fab446" d="M 154.5,180.5 C 153.564,184.735 153.231,189.069 153.5,193.5C 150.833,193.5 148.167,193.5 145.5,193.5C 145.5,189.5 145.5,185.5 145.5,181.5C 145.5,179.833 145.5,178.167 145.5,176.5C 148.5,176.5 151.5,176.5 154.5,176.5C 154.5,177.833 154.5,179.167 154.5,180.5 Z"/></g>
<g><path style="opacity:1" fill="#f5f2ed" d="M 145.5,181.5 C 145.5,185.5 145.5,189.5 145.5,193.5C 145.167,193.5 144.833,193.5 144.5,193.5C 144.22,189.775 142.22,188.608 138.5,190C 136.845,191.444 136.178,193.278 136.5,195.5C 133.167,197.167 129.833,198.833 126.5,200.5C 124.989,198.559 122.989,198.059 120.5,199C 118.316,200.898 117.983,203.064 119.5,205.5C 117.42,207.573 115.754,209.907 114.5,212.5C 107.015,203.58 108.348,196.08 118.5,190C 121.882,189.824 125.215,189.324 128.5,188.5C 132.216,181.476 137.883,179.143 145.5,181.5 Z"/></g>
<g><path style="opacity:1" fill="#f5f2ec" d="M 154.5,180.5 C 161.747,179.57 167.081,182.236 170.5,188.5C 176.205,188.696 181.372,190.363 186,193.5C 190.962,200.358 190.462,206.691 184.5,212.5C 183.246,209.907 181.58,207.573 179.5,205.5C 181.238,200.067 179.238,197.901 173.5,199C 172.944,199.383 172.611,199.883 172.5,200.5C 169.303,198.442 165.97,196.775 162.5,195.5C 162.631,190.291 160.297,188.625 155.5,190.5C 154.873,191.417 154.539,192.417 154.5,193.5C 154.167,193.5 153.833,193.5 153.5,193.5C 153.231,189.069 153.564,184.735 154.5,180.5 Z"/></g>
<g><path style="opacity:1" fill="#fdcf55" d="M 144.5,193.5 C 141.997,194.371 139.33,195.037 136.5,195.5C 136.178,193.278 136.845,191.444 138.5,190C 142.22,188.608 144.22,189.775 144.5,193.5 Z"/></g>
<g><path style="opacity:1" fill="#fdcd52" d="M 162.5,195.5 C 159.627,195.198 156.961,194.531 154.5,193.5C 154.539,192.417 154.873,191.417 155.5,190.5C 160.297,188.625 162.631,190.291 162.5,195.5 Z"/></g>
<g><path style="opacity:1" fill="#ca474b" d="M 144.5,193.5 C 144.833,193.5 145.167,193.5 145.5,193.5C 148.167,193.5 150.833,193.5 153.5,193.5C 153.833,193.5 154.167,193.5 154.5,193.5C 156.961,194.531 159.627,195.198 162.5,195.5C 165.97,196.775 169.303,198.442 172.5,200.5C 175.009,201.921 177.343,203.588 179.5,205.5C 181.58,207.573 183.246,209.907 184.5,212.5C 181.5,214.833 178.833,217.5 176.5,220.5C 158.833,220.5 141.167,220.5 123.5,220.5C 120.5,217.833 117.5,215.167 114.5,212.5C 115.754,209.907 117.42,207.573 119.5,205.5C 122.009,204.079 124.343,202.412 126.5,200.5C 129.833,198.833 133.167,197.167 136.5,195.5C 139.33,195.037 141.997,194.371 144.5,193.5 Z"/></g>
<g><path style="opacity:1" fill="#fdd058" d="M 126.5,200.5 C 124.343,202.412 122.009,204.079 119.5,205.5C 117.983,203.064 118.316,200.898 120.5,199C 122.989,198.059 124.989,198.559 126.5,200.5 Z"/></g>
<g><path style="opacity:1" fill="#fdd055" d="M 179.5,205.5 C 177.343,203.588 175.009,201.921 172.5,200.5C 172.611,199.883 172.944,199.383 173.5,199C 179.238,197.901 181.238,200.067 179.5,205.5 Z"/></g>
<g><path style="opacity:1" fill="#fccb4f" d="M 129.5,207.5 C 136.004,207.138 137.671,209.638 134.5,215C 127.745,215.756 126.078,213.256 129.5,207.5 Z"/></g>
<g><path style="opacity:1" fill="#fdcd4f" d="M 146.5,207.5 C 152.885,206.214 154.885,208.547 152.5,214.5C 146.296,215.958 144.296,213.625 146.5,207.5 Z"/></g>
<g><path style="opacity:1" fill="#fcc94f" d="M 164.5,207.5 C 171.145,206.977 172.811,209.477 169.5,215C 162.745,215.756 161.078,213.256 164.5,207.5 Z"/></g>
<g><path style="opacity:1" fill="#cb4a4b" d="M 89.5,229.5 C 85.5,229.5 81.5,229.5 77.5,229.5C 77.7678,227.901 77.4345,226.568 76.5,225.5C 74.8226,216.691 78.4893,213.524 87.5,216C 88.4162,216.374 89.2496,216.874 90,217.5C 90.6067,221.537 90.44,225.537 89.5,229.5 Z"/></g>
<g><path style="opacity:1" fill="#cb4a4b" d="M 222.5,226.5 C 221.596,227.209 221.263,228.209 221.5,229.5C 217.5,229.5 213.5,229.5 209.5,229.5C 208.669,225.524 208.503,221.524 209,217.5C 212.595,215.544 216.428,215.044 220.5,216C 223.762,218.911 224.429,222.411 222.5,226.5 Z"/></g>
<g><path style="opacity:1" fill="#f9b54c" d="M 123.5,220.5 C 141.167,220.5 158.833,220.5 176.5,220.5C 176.5,223.167 176.5,225.833 176.5,228.5C 180.042,228.187 183.375,228.521 186.5,229.5C 174.167,229.5 161.833,229.5 149.5,229.5C 137.167,229.5 124.833,229.5 112.5,229.5C 115.962,228.518 119.629,228.185 123.5,228.5C 123.5,225.833 123.5,223.167 123.5,220.5 Z"/></g>
<g><path style="opacity:1" fill="#f9b346" d="M 76.5,225.5 C 77.4345,226.568 77.7678,227.901 77.5,229.5C 81.5,229.5 85.5,229.5 89.5,229.5C 91.8333,229.5 94.1667,229.5 96.5,229.5C 96.5,232.167 96.5,234.833 96.5,237.5C 95.1667,237.5 93.8333,237.5 92.5,237.5C 86.5,237.5 80.5,237.5 74.5,237.5C 73.1667,237.5 71.8333,237.5 70.5,237.5C 70.5,234.833 70.5,232.167 70.5,229.5C 72.5,229.5 74.5,229.5 76.5,229.5C 76.5,228.167 76.5,226.833 76.5,225.5 Z"/></g>
<g><path style="opacity:1" fill="#c8424b" d="M 112.5,229.5 C 124.833,229.5 137.167,229.5 149.5,229.5C 149.5,239.5 149.5,249.5 149.5,259.5C 146.122,260.023 143.122,261.356 140.5,263.5C 140.5,260.833 140.5,258.167 140.5,255.5C 139.167,255.5 137.833,255.5 136.5,255.5C 136.5,252.5 136.5,249.5 136.5,246.5C 137.833,246.5 139.167,246.5 140.5,246.5C 140.5,243.5 140.5,240.5 140.5,237.5C 131.833,237.5 123.167,237.5 114.5,237.5C 114.5,240.5 114.5,243.5 114.5,246.5C 115.833,246.5 117.167,246.5 118.5,246.5C 118.5,249.5 118.5,252.5 118.5,255.5C 117.167,255.5 115.833,255.5 114.5,255.5C 114.5,258.5 114.5,261.5 114.5,264.5C 122.833,264.5 131.167,264.5 139.5,264.5C 137.394,266.719 136.394,269.385 136.5,272.5C 126.167,272.5 115.833,272.5 105.5,272.5C 105.5,269.833 105.5,267.167 105.5,264.5C 101.167,264.5 96.8333,264.5 92.5,264.5C 86.5,264.5 80.5,264.5 74.5,264.5C 73.1667,264.5 71.8333,264.5 70.5,264.5C 70.5,261.5 70.5,258.5 70.5,255.5C 71.8333,255.5 73.1667,255.5 74.5,255.5C 80.1667,255.5 85.8333,255.5 91.5,255.5C 91.8333,255.5 92.1667,255.5 92.5,255.5C 96.8333,255.5 101.167,255.5 105.5,255.5C 105.334,248.492 105.5,241.492 106,234.5C 107.159,231.507 109.325,229.84 112.5,229.5 Z"/></g>
<g><path style="opacity:1" fill="#f4f2f3" d="M 149.5,229.5 C 161.833,229.5 174.167,229.5 186.5,229.5C 189.675,229.84 191.841,231.507 193,234.5C 193.5,241.492 193.666,248.492 193.5,255.5C 193.5,258.5 193.5,261.5 193.5,264.5C 193.5,267.5 193.5,270.5 193.5,273.5C 183.167,273.5 172.833,273.5 162.5,273.5C 162.245,264.961 157.911,260.294 149.5,259.5C 149.5,249.5 149.5,239.5 149.5,229.5 Z"/></g>
<g><path style="opacity:1" fill="#f9b346" d="M 222.5,226.5 C 222.5,227.5 222.5,228.5 222.5,229.5C 224.5,229.5 226.5,229.5 228.5,229.5C 228.5,232.167 228.5,234.833 228.5,237.5C 227.167,237.5 225.833,237.5 224.5,237.5C 218.5,237.5 212.5,237.5 206.5,237.5C 205.167,237.5 203.833,237.5 202.5,237.5C 202.5,234.833 202.5,232.167 202.5,229.5C 204.833,229.5 207.167,229.5 209.5,229.5C 213.5,229.5 217.5,229.5 221.5,229.5C 221.263,228.209 221.596,227.209 222.5,226.5 Z"/></g>
<g><path style="opacity:1" fill="#f5f4f4" d="M 74.5,238.5 C 80.1667,238.5 85.8333,238.5 91.5,238.5C 91.5,244.167 91.5,249.833 91.5,255.5C 85.8333,255.5 80.1667,255.5 74.5,255.5C 74.5,249.833 74.5,244.167 74.5,238.5 Z"/></g>
<g><path style="opacity:1" fill="#f6ddb0" d="M 74.5,238.5 C 74.5,238.167 74.5,237.833 74.5,237.5C 80.5,237.5 86.5,237.5 92.5,237.5C 92.5,243.5 92.5,249.5 92.5,255.5C 92.1667,255.5 91.8333,255.5 91.5,255.5C 91.5,249.833 91.5,244.167 91.5,238.5C 85.8333,238.5 80.1667,238.5 74.5,238.5 Z"/></g>
<g><path style="opacity:1" fill="#f9b145" d="M 140.5,263.5 C 140.5,264.167 140.167,264.5 139.5,264.5C 131.167,264.5 122.833,264.5 114.5,264.5C 114.5,261.5 114.5,258.5 114.5,255.5C 115.833,255.5 117.167,255.5 118.5,255.5C 118.5,252.5 118.5,249.5 118.5,246.5C 117.167,246.5 115.833,246.5 114.5,246.5C 114.5,243.5 114.5,240.5 114.5,237.5C 123.167,237.5 131.833,237.5 140.5,237.5C 140.5,240.5 140.5,243.5 140.5,246.5C 139.167,246.5 137.833,246.5 136.5,246.5C 136.5,249.5 136.5,252.5 136.5,255.5C 137.833,255.5 139.167,255.5 140.5,255.5C 140.5,258.167 140.5,260.833 140.5,263.5 Z"/></g>
<g><path style="opacity:1" fill="#fea2d3" d="M 169.5,237.5 C 174.147,237.571 177.647,239.571 180,243.5C 180.851,249.253 180.517,254.92 179,260.5C 172.333,266.5 167,265.5 163,257.5C 161.89,251.574 162.556,245.908 165,240.5C 166.652,239.601 168.152,238.601 169.5,237.5 Z"/></g>
<g><path style="opacity:1" fill="#f6d9a0" d="M 206.5,237.5 C 212.5,237.5 218.5,237.5 224.5,237.5C 224.5,237.833 224.5,238.167 224.5,238.5C 218.833,238.5 213.167,238.5 207.5,238.5C 207.5,244.167 207.5,249.833 207.5,255.5C 207.167,255.5 206.833,255.5 206.5,255.5C 206.5,249.5 206.5,243.5 206.5,237.5 Z"/></g>
<g><path style="opacity:1" fill="#f4f5f4" d="M 224.5,238.5 C 224.5,244.167 224.5,249.833 224.5,255.5C 218.833,255.5 213.167,255.5 207.5,255.5C 207.5,249.833 207.5,244.167 207.5,238.5C 213.167,238.5 218.833,238.5 224.5,238.5 Z"/></g>
<g><path style="opacity:1" fill="#c9464d" d="M 193.5,255.5 C 197.833,255.5 202.167,255.5 206.5,255.5C 206.833,255.5 207.167,255.5 207.5,255.5C 213.167,255.5 218.833,255.5 224.5,255.5C 226.167,255.5 227.833,255.5 229.5,255.5C 229.5,258.5 229.5,261.5 229.5,264.5C 227.833,264.5 226.167,264.5 224.5,264.5C 218.5,264.5 212.5,264.5 206.5,264.5C 202.167,264.5 197.833,264.5 193.5,264.5C 193.5,261.5 193.5,258.5 193.5,255.5 Z"/></g>
<g><path style="opacity:1" fill="#5364a8" d="M 149.5,259.5 C 157.911,260.294 162.245,264.961 162.5,273.5C 162.416,276.327 161.75,278.994 160.5,281.5C 159.833,281.5 159.5,281.833 159.5,282.5C 158.833,282.5 158.5,282.833 158.5,283.5C 155.715,285.095 152.715,286.095 149.5,286.5C 146.183,286.336 143.183,285.336 140.5,283.5C 138.195,280.593 136.862,277.259 136.5,273.5C 136.5,273.167 136.5,272.833 136.5,272.5C 136.394,269.385 137.394,266.719 139.5,264.5C 140.167,264.5 140.5,264.167 140.5,263.5C 143.122,261.356 146.122,260.023 149.5,259.5 Z"/></g>
<g><path style="opacity:1" fill="#f5f3f1" d="M 74.5,264.5 C 80.5,264.5 86.5,264.5 92.5,264.5C 92.5,267.833 92.5,271.167 92.5,274.5C 86.4214,276.304 80.4214,278.304 74.5,280.5C 74.5,275.167 74.5,269.833 74.5,264.5 Z"/></g>
<g><path style="opacity:1" fill="#f4f1ee" d="M 206.5,264.5 C 212.5,264.5 218.5,264.5 224.5,264.5C 224.5,269.833 224.5,275.167 224.5,280.5C 218.421,278.696 212.421,276.696 206.5,274.5C 206.5,271.167 206.5,267.833 206.5,264.5 Z"/></g>
<g><path style="opacity:1" fill="#ca484f" d="M 92.5,283.5 C 86.4214,285.304 80.4214,287.304 74.5,289.5C 73.4168,289.539 72.4168,289.873 71.5,290.5C 70.1667,287.5 70.1667,284.5 71.5,281.5C 72.4168,280.873 73.4168,280.539 74.5,280.5C 80.4214,278.304 86.4214,276.304 92.5,274.5C 93.7079,273.766 95.0413,273.433 96.5,273.5C 96.5,276.5 96.5,279.5 96.5,282.5C 95.0413,282.433 93.7079,282.766 92.5,283.5 Z"/></g>
<g><path style="opacity:1" fill="#f8b146" d="M 105.5,273.5 C 108.5,273.5 111.5,273.5 114.5,273.5C 114.5,286.5 114.5,299.5 114.5,312.5C 113.5,311.833 112.5,311.167 111.5,310.5C 109.678,307.528 107.844,304.528 106,301.5C 105.5,292.173 105.334,282.839 105.5,273.5 Z"/></g>
<g><path style="opacity:1" fill="#c8414b" d="M 114.5,273.5 C 117.167,273.5 119.833,273.5 122.5,273.5C 122.5,287.833 122.5,302.167 122.5,316.5C 119.246,316.206 116.579,314.873 114.5,312.5C 114.5,299.5 114.5,286.5 114.5,273.5 Z"/></g>
<g><path style="opacity:1" fill="#dd744f" d="M 105.5,273.5 C 105.5,273.167 105.5,272.833 105.5,272.5C 115.833,272.5 126.167,272.5 136.5,272.5C 136.5,272.833 136.5,273.167 136.5,273.5C 135.167,273.5 133.833,273.5 132.5,273.5C 132.5,287.833 132.5,302.167 132.5,316.5C 131.504,302.343 131.171,288.01 131.5,273.5C 128.833,273.5 126.167,273.5 123.5,273.5C 123.829,288.01 123.496,302.343 122.5,316.5C 122.5,302.167 122.5,287.833 122.5,273.5C 119.833,273.5 117.167,273.5 114.5,273.5C 111.5,273.5 108.5,273.5 105.5,273.5 Z"/></g>
<g><path style="opacity:1" fill="#f9b447" d="M 132.5,316.5 C 129.167,317.833 125.833,317.833 122.5,316.5C 123.496,302.343 123.829,288.01 123.5,273.5C 126.167,273.5 128.833,273.5 131.5,273.5C 131.171,288.01 131.504,302.343 132.5,316.5 Z"/></g>
<g><path style="opacity:1" fill="#c8424b" d="M 136.5,273.5 C 136.862,277.259 138.195,280.593 140.5,283.5C 140.5,293.167 140.5,302.833 140.5,312.5C 138.421,314.873 135.754,316.206 132.5,316.5C 132.5,302.167 132.5,287.833 132.5,273.5C 133.833,273.5 135.167,273.5 136.5,273.5 Z"/></g>
<g><path style="opacity:1" fill="#c8444c" d="M 162.5,273.5 C 172.833,273.5 183.167,273.5 193.5,273.5C 193.666,282.839 193.5,292.173 193,301.5C 191.408,305.021 189.575,308.354 187.5,311.5C 170.141,322.158 157.475,318.158 149.5,299.5C 149.5,295.167 149.5,290.833 149.5,286.5C 152.715,286.095 155.715,285.095 158.5,283.5C 157.901,290.391 158.735,297.058 161,303.5C 167.967,310.079 174.967,310.079 182,303.5C 183.411,301.35 184.245,299.016 184.5,296.5C 185.487,291.695 185.821,286.695 185.5,281.5C 177.167,281.5 168.833,281.5 160.5,281.5C 161.75,278.994 162.416,276.327 162.5,273.5 Z"/></g>
<g><path style="opacity:1" fill="#ca474d" d="M 206.5,274.5 C 212.421,276.696 218.421,278.696 224.5,280.5C 226.042,281.301 227.708,281.634 229.5,281.5C 229.5,284.5 229.5,287.5 229.5,290.5C 227.784,290.371 226.117,290.038 224.5,289.5C 218.579,287.304 212.579,285.304 206.5,283.5C 205.292,282.766 203.959,282.433 202.5,282.5C 202.183,279.428 202.516,276.428 203.5,273.5C 204.417,274.127 205.417,274.461 206.5,274.5 Z"/></g>
<g><path style="opacity:1" fill="#f9b246" d="M 159.5,282.5 C 167.833,282.5 176.167,282.5 184.5,282.5C 184.5,287.167 184.5,291.833 184.5,296.5C 184.245,299.016 183.411,301.35 182,303.5C 174.967,310.079 167.967,310.079 161,303.5C 158.735,297.058 157.901,290.391 158.5,283.5C 158.5,282.833 158.833,282.5 159.5,282.5 Z"/></g>
<g><path style="opacity:1" fill="#dd7248" d="M 159.5,282.5 C 159.5,281.833 159.833,281.5 160.5,281.5C 168.833,281.5 177.167,281.5 185.5,281.5C 185.821,286.695 185.487,291.695 184.5,296.5C 184.5,291.833 184.5,287.167 184.5,282.5C 176.167,282.5 167.833,282.5 159.5,282.5 Z"/></g>
<g><path style="opacity:1" fill="#f5f3f1" d="M 92.5,283.5 C 92.5,291.833 92.5,300.167 92.5,308.5C 86.5,308.5 80.5,308.5 74.5,308.5C 74.5,302.167 74.5,295.833 74.5,289.5C 80.4214,287.304 86.4214,285.304 92.5,283.5 Z"/></g>
<g><path style="opacity:1" fill="#f8b048" d="M 140.5,283.5 C 143.183,285.336 146.183,286.336 149.5,286.5C 149.5,290.833 149.5,295.167 149.5,299.5C 148.225,305.057 145.225,309.391 140.5,312.5C 140.5,302.833 140.5,293.167 140.5,283.5 Z"/></g>
<g><path style="opacity:1" fill="#f5f3ef" d="M 206.5,283.5 C 212.579,285.304 218.579,287.304 224.5,289.5C 224.5,295.833 224.5,302.167 224.5,308.5C 218.5,308.5 212.5,308.5 206.5,308.5C 206.5,300.167 206.5,291.833 206.5,283.5 Z"/></g>
<g><path style="opacity:1" fill="#cb4a4a" d="M 167.5,290.5 C 170.5,290.5 173.5,290.5 176.5,290.5C 177.586,295.196 175.919,298.196 171.5,299.5C 169.971,299.471 168.804,298.804 168,297.5C 167.503,295.19 167.337,292.857 167.5,290.5 Z"/></g>
<g><path style="opacity:1" fill="#f5f2ef" d="M 149.5,299.5 C 157.475,318.158 170.141,322.158 187.5,311.5C 180.977,319.099 172.644,323.599 162.5,325C 153.5,325.667 144.5,325.667 135.5,325C 129.471,323.483 123.804,321.15 118.5,318C 115.261,316.264 112.927,313.764 111.5,310.5C 112.5,311.167 113.5,311.833 114.5,312.5C 116.579,314.873 119.246,316.206 122.5,316.5C 125.833,317.833 129.167,317.833 132.5,316.5C 135.754,316.206 138.421,314.873 140.5,312.5C 145.225,309.391 148.225,305.057 149.5,299.5 Z"/></g>
<g><path style="opacity:1" fill="#f5b349" d="M 74.5,308.5 C 80.5,308.5 86.5,308.5 92.5,308.5C 93.8333,308.5 95.1667,308.5 96.5,308.5C 96.5,311.167 96.5,313.833 96.5,316.5C 98.4147,316.216 100.081,316.549 101.5,317.5C 101.167,317.5 100.833,317.5 100.5,317.5C 89.1667,317.5 77.8333,317.5 66.5,317.5C 66.1667,317.5 65.8333,317.5 65.5,317.5C 66.9187,316.549 68.5853,316.216 70.5,316.5C 70.5,313.833 70.5,311.167 70.5,308.5C 71.8333,308.5 73.1667,308.5 74.5,308.5 Z"/></g>
<g><path style="opacity:1" fill="#f5b349" d="M 206.5,308.5 C 212.5,308.5 218.5,308.5 224.5,308.5C 227.5,308.5 230.5,308.5 233.5,308.5C 233.5,311.5 233.5,314.5 233.5,317.5C 221.833,317.5 210.167,317.5 198.5,317.5C 200.948,316.527 203.615,316.194 206.5,316.5C 206.5,313.833 206.5,311.167 206.5,308.5 Z"/></g>
<g><path style="opacity:1" fill="#5064a9" d="M 198.5,317.5 C 210.167,317.5 221.833,317.5 233.5,317.5C 233.5,320.167 233.5,322.833 233.5,325.5C 221.833,325.5 210.167,325.5 198.5,325.5C 198.5,322.833 198.5,320.167 198.5,317.5 Z"/></g>
<g><path style="opacity:1" fill="#928d87" d="M 65.5,317.5 C 65.8333,317.5 66.1667,317.5 66.5,317.5C 66.5,320.167 66.5,322.833 66.5,325.5C 77.8333,325.5 89.1667,325.5 100.5,325.5C 100.5,322.833 100.5,320.167 100.5,317.5C 100.833,317.5 101.167,317.5 101.5,317.5C 101.5,320.5 101.5,323.5 101.5,326.5C 89.5,326.5 77.5,326.5 65.5,326.5C 65.5,323.5 65.5,320.5 65.5,317.5 Z"/></g>
<g><path style="opacity:1" fill="#5064aa" d="M 66.5,317.5 C 77.8333,317.5 89.1667,317.5 100.5,317.5C 100.5,320.167 100.5,322.833 100.5,325.5C 89.1667,325.5 77.8333,325.5 66.5,325.5C 66.5,322.833 66.5,320.167 66.5,317.5 Z"/></g>
<g><path style="opacity:1" fill="#9b9283" d="M 198.5,317.5 C 198.5,320.167 198.5,322.833 198.5,325.5C 210.167,325.5 221.833,325.5 233.5,325.5C 221.678,326.495 209.678,326.828 197.5,326.5C 197.19,323.287 197.523,320.287 198.5,317.5 Z"/></g>
<g><path style="opacity:0.996" fill="#c8414b" d="M -0.5,352.5 C 170.167,352.5 340.833,352.5 511.5,352.5C 511.5,366.167 511.5,379.833 511.5,393.5C 507.27,409.56 496.936,419.393 480.5,423C 330.5,423.667 180.5,423.667 30.5,423C 14.0636,419.393 3.73024,409.56 -0.5,393.5C -0.5,379.833 -0.5,366.167 -0.5,352.5 Z"/></g>
</svg>
