<svg id="visual" viewBox="0 0 900 600" width="900" height="600" xmlns="http://www.w3.org/2000/svg" xmlns:xlink="http://www.w3.org/1999/xlink" version="1.1"><rect x="0" y="0" width="900" height="600" fill="#001220"></rect><defs><linearGradient id="grad1_0" x1="33.3%" y1="0%" x2="100%" y2="100%"><stop offset="20%" stop-color="#001220" stop-opacity="1"></stop><stop offset="80%" stop-color="#001220" stop-opacity="1"></stop></linearGradient></defs><defs><linearGradient id="grad2_0" x1="0%" y1="0%" x2="66.7%" y2="100%"><stop offset="20%" stop-color="#001220" stop-opacity="1"></stop><stop offset="80%" stop-color="#001220" stop-opacity="1"></stop></linearGradient></defs><g transform="translate(900, 0)"><path d="M0 405.6C-42.1 380.3 -84.2 355.1 -141.6 341.8C-199 328.6 -271.7 327.4 -286.8 286.8C-302 246.2 -259.6 166.1 -269.8 111.7C-280 57.4 -342.8 28.7 -405.6 0L0 0Z" fill="#FBAE3C"></path></g><g transform="translate(0, 600)"><path d="M0 -405.6C52.1 -390.8 104.2 -375.9 145 -350.2C185.9 -324.4 215.4 -287.8 256 -256C296.5 -224.1 348 -197.1 374.7 -155.2C401.5 -113.4 403.6 -56.7 405.6 0L0 0Z" fill="#FBAE3C"></path></g></svg>