<svg id="visual" viewBox="0 0 1920 1080" width="1920" height="1080" xmlns="http://www.w3.org/2000/svg" xmlns:xlink="http://www.w3.org/1999/xlink" version="1.1"><path d="M0 411L106.7 418.3C213.3 425.7 426.7 440.3 640 417C853.3 393.7 1066.7 332.3 1280 316C1493.3 299.7 1706.7 328.3 1813.3 342.7L1920 357L1920 0L1813.3 0C1706.7 0 1493.3 0 1280 0C1066.7 0 853.3 0 640 0C426.7 0 213.3 0 106.7 0L0 0Z" fill="#6198ff"></path><path d="M0 865L106.7 850.7C213.3 836.3 426.7 807.7 640 811.3C853.3 815 1066.7 851 1280 856.3C1493.3 861.7 1706.7 836.3 1813.3 823.7L1920 811L1920 355L1813.3 340.7C1706.7 326.3 1493.3 297.7 1280 314C1066.7 330.3 853.3 391.7 640 415C426.7 438.3 213.3 423.7 106.7 416.3L0 409Z" fill="#0066ff"></path><path d="M0 1081L106.7 1081C213.3 1081 426.7 1081 640 1081C853.3 1081 1066.7 1081 1280 1081C1493.3 1081 1706.7 1081 1813.3 1081L1920 1081L1920 809L1813.3 821.7C1706.7 834.3 1493.3 859.7 1280 854.3C1066.7 849 853.3 813 640 809.3C426.7 805.7 213.3 834.3 106.7 848.7L0 863Z" fill="#004cbb"></path></svg>