<?xml version="1.0" encoding="UTF-8"?>
<!DOCTYPE svg PUBLIC "-//W3C//DTD SVG 1.1//EN" "http://www.w3.org/Graphics/SVG/1.1/DTD/svg11.dtd">
<svg xmlns="http://www.w3.org/2000/svg" version="1.1" width="512px" height="512px" style="shape-rendering:geometricPrecision; text-rendering:geometricPrecision; image-rendering:optimizeQuality; fill-rule:evenodd; clip-rule:evenodd" xmlns:xlink="http://www.w3.org/1999/xlink">
<g><path style="opacity:1" fill="#f4f3f3" d="M 48.5,87.5 C 101.959,123.069 155.625,158.402 209.5,193.5C 209.56,194.043 209.893,194.376 210.5,194.5C 211.5,158.84 211.833,123.173 211.5,87.5C 217.167,87.5 222.833,87.5 228.5,87.5C 228.5,134.5 228.5,181.5 228.5,228.5C 152.167,228.5 75.8333,228.5 -0.5,228.5C -0.5,222.833 -0.5,217.167 -0.5,211.5C 46.1679,211.667 92.8345,211.5 139.5,211C 138.473,210.487 137.473,209.987 136.5,209.5C 91.353,179.089 45.6863,149.423 -0.5,120.5C -0.5,119.5 -0.5,118.5 -0.5,117.5C 0.442336,114.345 1.77567,111.345 3.5,108.5C 55.7683,142.643 108.102,176.809 160.5,211C 171.5,211.667 182.5,211.667 193.5,211C 133.777,172.479 74.11,133.979 14.5,95.5C 18.9457,91.3926 24.279,88.8926 30.5,88C 36.4908,87.5005 42.4908,87.3338 48.5,87.5 Z"/></g>
<g><path style="opacity:0.998" fill="#5a5fa8" d="M 210.5,87.5 C 210.833,87.5 211.167,87.5 211.5,87.5C 211.833,123.173 211.5,158.84 210.5,194.5C 209.893,194.376 209.56,194.043 209.5,193.5C 210.498,158.337 210.832,123.004 210.5,87.5 Z"/></g>
<g><path style="opacity:0.995" fill="#41479b" d="M 48.5,87.5 C 102.5,87.5 156.5,87.5 210.5,87.5C 210.832,123.004 210.498,158.337 209.5,193.5C 155.625,158.402 101.959,123.069 48.5,87.5 Z"/></g>
<g><path style="opacity:1" fill="#fe4b55" d="M 229.5,87.5 C 246.833,87.5 264.167,87.5 281.5,87.5C 281.5,134.833 281.5,182.167 281.5,229.5C 358.167,229.5 434.833,229.5 511.5,229.5C 511.5,246.833 511.5,264.167 511.5,281.5C 434.833,281.5 358.167,281.5 281.5,281.5C 281.5,328.833 281.5,376.167 281.5,423.5C 264.167,423.5 246.833,423.5 229.5,423.5C 229.5,376.167 229.5,328.833 229.5,281.5C 152.833,281.5 76.1667,281.5 -0.5,281.5C -0.5,264.167 -0.5,246.833 -0.5,229.5C 76.1667,229.5 152.833,229.5 229.5,229.5C 229.5,182.167 229.5,134.833 229.5,87.5 Z"/></g>
<g><path style="opacity:1" fill="#f4f3f3" d="M 282.5,87.5 C 288.167,87.5 293.833,87.5 299.5,87.5C 299.167,123.173 299.5,158.84 300.5,194.5C 301.107,194.376 301.44,194.043 301.5,193.5C 355.375,158.402 409.041,123.069 462.5,87.5C 468.509,87.3338 474.509,87.5005 480.5,88C 483.104,88.3903 485.438,89.2237 487.5,90.5C 424.883,130.147 362.55,170.314 300.5,211C 311.931,211.955 323.264,211.622 334.5,210C 390.167,173.667 445.833,137.333 501.5,101C 499.959,99.6288 498.625,98.1288 497.5,96.5C 500.764,97.9274 503.264,100.261 505,103.5C 508.025,107.877 510.192,112.544 511.5,117.5C 511.5,118.5 511.5,119.5 511.5,120.5C 506.406,123.077 501.406,125.911 496.5,129C 455.657,155.696 414.991,182.53 374.5,209.5C 373.527,209.987 372.527,210.487 371.5,211C 418.165,211.5 464.832,211.667 511.5,211.5C 511.5,217.167 511.5,222.833 511.5,228.5C 435.167,228.5 358.833,228.5 282.5,228.5C 282.5,181.5 282.5,134.5 282.5,87.5 Z"/></g>
<g><path style="opacity:0.995" fill="#41479b" d="M 300.5,87.5 C 354.5,87.5 408.5,87.5 462.5,87.5C 409.041,123.069 355.375,158.402 301.5,193.5C 300.502,158.337 300.168,123.004 300.5,87.5 Z"/></g>
<g><path style="opacity:0.998" fill="#5a5fa8" d="M 299.5,87.5 C 299.833,87.5 300.167,87.5 300.5,87.5C 300.168,123.004 300.502,158.337 301.5,193.5C 301.44,194.043 301.107,194.376 300.5,194.5C 299.5,158.84 299.167,123.173 299.5,87.5 Z"/></g>
<g><path style="opacity:1" fill="#fe4e57" d="M 487.5,90.5 C 491.598,91.2719 494.931,93.2719 497.5,96.5C 498.625,98.1288 499.959,99.6288 501.5,101C 445.833,137.333 390.167,173.667 334.5,210C 323.264,211.622 311.931,211.955 300.5,211C 362.55,170.314 424.883,130.147 487.5,90.5 Z"/></g>
<g><path style="opacity:1" fill="#fe4e57" d="M 14.5,95.5 C 74.11,133.979 133.777,172.479 193.5,211C 182.5,211.667 171.5,211.667 160.5,211C 108.102,176.809 55.7683,142.643 3.5,108.5C 4.80891,105.222 6.64225,102.222 9,99.5C 10.4321,97.5612 12.2654,96.2279 14.5,95.5 Z"/></g>
<g><path style="opacity:1" fill="#41479b" d="M -0.5,120.5 C 45.6863,149.423 91.353,179.089 136.5,209.5C 91.003,210.499 45.3364,210.832 -0.5,210.5C -0.5,180.5 -0.5,150.5 -0.5,120.5 Z"/></g>
<g><path style="opacity:1" fill="#41479b" d="M 511.5,120.5 C 511.5,150.5 511.5,180.5 511.5,210.5C 465.664,210.832 419.997,210.499 374.5,209.5C 414.991,182.53 455.657,155.696 496.5,129C 501.406,125.911 506.406,123.077 511.5,120.5 Z"/></g>
<g><path style="opacity:1" fill="#595fa7" d="M 136.5,209.5 C 137.473,209.987 138.473,210.487 139.5,211C 92.8345,211.5 46.1679,211.667 -0.5,211.5C -0.5,211.167 -0.5,210.833 -0.5,210.5C 45.3364,210.832 91.003,210.499 136.5,209.5 Z"/></g>
<g><path style="opacity:1" fill="#595fa7" d="M 374.5,209.5 C 419.997,210.499 465.664,210.832 511.5,210.5C 511.5,210.833 511.5,211.167 511.5,211.5C 464.832,211.667 418.165,211.5 371.5,211C 372.527,210.487 373.527,209.987 374.5,209.5 Z"/></g>
<g><path style="opacity:1" fill="#f9a1a6" d="M 228.5,87.5 C 228.833,87.5 229.167,87.5 229.5,87.5C 229.5,134.833 229.5,182.167 229.5,229.5C 152.833,229.5 76.1667,229.5 -0.5,229.5C -0.5,229.167 -0.5,228.833 -0.5,228.5C 75.8333,228.5 152.167,228.5 228.5,228.5C 228.5,181.5 228.5,134.5 228.5,87.5 Z"/></g>
<g><path style="opacity:1" fill="#f9a1a6" d="M 281.5,87.5 C 281.833,87.5 282.167,87.5 282.5,87.5C 282.5,134.5 282.5,181.5 282.5,228.5C 358.833,228.5 435.167,228.5 511.5,228.5C 511.5,228.833 511.5,229.167 511.5,229.5C 434.833,229.5 358.167,229.5 281.5,229.5C 281.5,182.167 281.5,134.833 281.5,87.5 Z"/></g>
<g><path style="opacity:1" fill="#f9a1a6" d="M -0.5,282.5 C -0.5,282.167 -0.5,281.833 -0.5,281.5C 76.1667,281.5 152.833,281.5 229.5,281.5C 229.5,328.833 229.5,376.167 229.5,423.5C 229.167,423.5 228.833,423.5 228.5,423.5C 228.5,376.5 228.5,329.5 228.5,282.5C 152.167,282.5 75.8333,282.5 -0.5,282.5 Z"/></g>
<g><path style="opacity:1" fill="#f9a1a6" d="M 511.5,281.5 C 511.5,281.833 511.5,282.167 511.5,282.5C 435.167,282.5 358.833,282.5 282.5,282.5C 282.5,329.5 282.5,376.5 282.5,423.5C 282.167,423.5 281.833,423.5 281.5,423.5C 281.5,376.167 281.5,328.833 281.5,281.5C 358.167,281.5 434.833,281.5 511.5,281.5 Z"/></g>
<g><path style="opacity:1" fill="#f4f3f3" d="M -0.5,282.5 C 75.8333,282.5 152.167,282.5 228.5,282.5C 228.5,329.5 228.5,376.5 228.5,423.5C 222.833,423.5 217.167,423.5 211.5,423.5C 211.833,387.827 211.5,352.16 210.5,316.5C 209.893,316.624 209.56,316.957 209.5,317.5C 155.625,352.598 101.959,387.931 48.5,423.5C 42.4908,423.666 36.4908,423.499 30.5,423C 27.8958,422.61 25.5625,421.776 23.5,420.5C 85.9325,380.583 148.266,340.416 210.5,300C 199.5,299.333 188.5,299.333 177.5,300C 122.167,336 66.8333,372 11.5,408C 10.1772,408.816 9.51056,409.983 9.5,411.5C 4.59743,406.361 1.26409,400.361 -0.5,393.5C -0.5,392.5 -0.5,391.5 -0.5,390.5C 45.6863,361.577 91.353,331.911 136.5,301.5C 137.473,301.013 138.473,300.513 139.5,300C 92.8345,299.5 46.1679,299.333 -0.5,299.5C -0.5,293.833 -0.5,288.167 -0.5,282.5 Z"/></g>
<g><path style="opacity:1" fill="#f4f3f3" d="M 511.5,282.5 C 511.5,288.167 511.5,293.833 511.5,299.5C 464.832,299.333 418.165,299.5 371.5,300C 372.527,300.513 373.527,301.013 374.5,301.5C 414.991,328.47 455.657,355.304 496.5,382C 501.406,385.089 506.406,387.923 511.5,390.5C 511.5,391.5 511.5,392.5 511.5,393.5C 510.417,397.408 508.751,401.074 506.5,404.5C 454.069,369.775 401.403,335.275 348.5,301C 337.264,299.378 325.931,299.045 314.5,300C 374.255,339.869 434.588,378.702 495.5,416.5C 485.55,422.912 474.55,425.246 462.5,423.5C 409.041,387.931 355.375,352.598 301.5,317.5C 301.44,316.957 301.107,316.624 300.5,316.5C 299.5,352.16 299.167,387.827 299.5,423.5C 293.833,423.5 288.167,423.5 282.5,423.5C 282.5,376.5 282.5,329.5 282.5,282.5C 358.833,282.5 435.167,282.5 511.5,282.5 Z"/></g>
<g><path style="opacity:1" fill="#595fa7" d="M -0.5,300.5 C -0.5,300.167 -0.5,299.833 -0.5,299.5C 46.1679,299.333 92.8345,299.5 139.5,300C 138.473,300.513 137.473,301.013 136.5,301.5C 91.003,300.501 45.3364,300.168 -0.5,300.5 Z"/></g>
<g><path style="opacity:1" fill="#595fa7" d="M 511.5,299.5 C 511.5,299.833 511.5,300.167 511.5,300.5C 465.664,300.168 419.997,300.501 374.5,301.5C 373.527,301.013 372.527,300.513 371.5,300C 418.165,299.5 464.832,299.333 511.5,299.5 Z"/></g>
<g><path style="opacity:1" fill="#41479b" d="M -0.5,300.5 C 45.3364,300.168 91.003,300.501 136.5,301.5C 91.353,331.911 45.6863,361.577 -0.5,390.5C -0.5,360.5 -0.5,330.5 -0.5,300.5 Z"/></g>
<g><path style="opacity:1" fill="#fe4e57" d="M 23.5,420.5 C 17.8507,419.01 13.184,416.01 9.5,411.5C 9.51056,409.983 10.1772,408.816 11.5,408C 66.8333,372 122.167,336 177.5,300C 188.5,299.333 199.5,299.333 210.5,300C 148.266,340.416 85.9325,380.583 23.5,420.5 Z"/></g>
<g><path style="opacity:1" fill="#fe4e57" d="M 506.5,404.5 C 504.204,409.762 500.537,413.762 495.5,416.5C 434.588,378.702 374.255,339.869 314.5,300C 325.931,299.045 337.264,299.378 348.5,301C 401.403,335.275 454.069,369.775 506.5,404.5 Z"/></g>
<g><path style="opacity:1" fill="#41479b" d="M 511.5,300.5 C 511.5,330.5 511.5,360.5 511.5,390.5C 506.406,387.923 501.406,385.089 496.5,382C 455.657,355.304 414.991,328.47 374.5,301.5C 419.997,300.501 465.664,300.168 511.5,300.5 Z"/></g>
<g><path style="opacity:0.998" fill="#5a5fa8" d="M 301.5,317.5 C 300.502,352.663 300.168,387.996 300.5,423.5C 300.167,423.5 299.833,423.5 299.5,423.5C 299.167,387.827 299.5,352.16 300.5,316.5C 301.107,316.624 301.44,316.957 301.5,317.5 Z"/></g>
<g><path style="opacity:0.995" fill="#41479b" d="M 209.5,317.5 C 210.498,352.663 210.832,387.996 210.5,423.5C 156.5,423.5 102.5,423.5 48.5,423.5C 101.959,387.931 155.625,352.598 209.5,317.5 Z"/></g>
<g><path style="opacity:0.998" fill="#5a5fa8" d="M 209.5,317.5 C 209.56,316.957 209.893,316.624 210.5,316.5C 211.5,352.16 211.833,387.827 211.5,423.5C 211.167,423.5 210.833,423.5 210.5,423.5C 210.832,387.996 210.498,352.663 209.5,317.5 Z"/></g>
<g><path style="opacity:0.995" fill="#41479b" d="M 301.5,317.5 C 355.375,352.598 409.041,387.931 462.5,423.5C 408.5,423.5 354.5,423.5 300.5,423.5C 300.168,387.996 300.502,352.663 301.5,317.5 Z"/></g>
</svg>
